<svg width="9" height="12" viewBox="0 0 9 12" fill="none" xmlns="http://www.w3.org/2000/svg">
<path d="M4.70433 0.222656C2.39175 0.222656 0.524963 2.06516 0.524963 4.34766C0.524963 7.09766 4.70433 11.2227 4.70433 11.2227C4.70433 11.2227 8.8837 7.09766 8.8837 4.34766C8.8837 2.06516 7.01692 0.222656 4.70433 0.222656ZM4.70433 1.59766C5.44329 1.59766 6.15198 1.88739 6.67451 2.40311C7.19703 2.91884 7.49058 3.61831 7.49058 4.34766C7.49058 5.87391 6.2507 7.09766 4.70433 7.09766C3.96537 7.09766 3.25668 6.80793 2.73416 6.2922C2.21164 5.77647 1.91809 5.077 1.91809 4.34766C1.91809 3.61831 2.21164 2.91884 2.73416 2.40311C3.25668 1.88739 3.96537 1.59766 4.70433 1.59766Z" fill="white"/>
</svg>
