<svg width="26" height="26" viewBox="0 0 26 26" fill="none" xmlns="http://www.w3.org/2000/svg">
<g clip-path="url(#clip0_1_252)">
<path d="M25.9526 12.7812C25.9526 5.87769 20.2824 0.28125 13.2878 0.28125C6.29325 0.28125 0.623047 5.87769 0.623047 12.7812C0.623047 19.0204 5.25437 24.1917 11.3089 25.1293V16.3945H8.09328V12.7812H11.3089V10.0273C11.3089 6.89453 13.1997 5.16406 16.0926 5.16406C17.4782 5.16406 18.9276 5.4082 18.9276 5.4082V8.48438H17.3306C15.7573 8.48438 15.2667 9.44792 15.2667 10.4365V12.7812H18.7792L18.2177 16.3945H15.2667V25.1293C21.3212 24.1917 25.9526 19.0204 25.9526 12.7812Z" fill="white"/>
<path d="M18.2176 16.3945L18.7792 12.7812H15.2667V10.4365C15.2667 9.44792 15.7573 8.48438 17.3305 8.48438H18.9276V5.4082C18.9276 5.4082 17.4782 5.16406 16.0926 5.16406C13.1997 5.16406 11.3089 6.89453 11.3089 10.0273V12.7812H8.09326V16.3945H11.3089V25.1293C12.6202 25.3319 13.9554 25.3319 15.2667 25.1293V16.3945H18.2176Z" fill="#0A1013"/>
</g>
<defs>
<clipPath id="clip0_1_252">
<rect width="25.3295" height="25" fill="white" transform="translate(0.623047 0.28125)"/>
</clipPath>
</defs>
</svg>
