<svg width="26" height="26" viewBox="0 0 26 26" fill="none" xmlns="http://www.w3.org/2000/svg">
<path d="M17.475 8.10693H15.5099V10.1049H17.475V8.10693Z" fill="white"/>
<path d="M16.2685 12.6842C16.2685 14.4591 14.8052 15.9033 13.0069 15.9033C11.2084 15.9033 9.74521 14.4591 9.74521 12.6842C9.74521 12.2039 9.85536 11.7492 10.0472 11.3394H7.89185V16.8652C7.89185 17.3668 8.30535 17.7749 8.81357 17.7749H17.2003C17.7086 17.7749 18.1221 17.3668 18.1221 16.8652V11.3396H15.9664C16.1583 11.7494 16.2685 12.2039 16.2685 12.6842Z" fill="white"/>
<path d="M13.0078 14.5987C14.0771 14.5987 14.9475 13.7398 14.9475 12.6842C14.9475 12.1604 14.733 11.6855 14.3864 11.3394H11.6287C11.2824 11.6853 11.0679 12.1604 11.0679 12.6842C11.0679 13.7398 11.938 14.5987 13.0078 14.5987Z" fill="white"/>
<path d="M13.0058 0.130859C5.96944 0.130859 0.265259 5.76105 0.265259 12.7058C0.265259 19.6504 5.96944 25.2812 13.0058 25.2812C20.0421 25.2812 25.7467 19.6506 25.7467 12.7058C25.7465 5.76105 20.0421 0.130859 13.0058 0.130859ZM19.4427 16.8653C19.4427 18.0862 18.4363 19.0796 17.1991 19.0796H8.81239C7.57541 19.0796 6.56887 18.0864 6.56887 16.8653V8.54962C6.56887 7.32874 7.57519 6.33529 8.81239 6.33529H17.1991C18.4361 6.33529 19.4427 7.32852 19.4427 8.54962V16.8653Z" fill="white"/>
</svg>
