<svg width="21" height="17" viewBox="0 0 21 17" fill="none" xmlns="http://www.w3.org/2000/svg">
<path d="M19.399 5.4238C19.5348 5.30201 19.6392 5.14922 19.7032 4.97843C19.7673 4.80764 19.7891 4.6239 19.7669 4.44285C19.7496 4.27691 19.6835 4.11983 19.5769 3.99145C19.4703 3.86307 19.3281 3.76915 19.1682 3.72157C19.0344 3.84336 18.9314 3.99507 18.8674 4.1643C18.8035 4.33353 18.7805 4.51549 18.8004 4.6953C18.8172 4.86222 18.8831 5.02042 18.9896 5.15004C19.0961 5.27965 19.2385 5.37489 19.399 5.4238ZM19.839 5.82051C19.6918 5.94353 19.5763 6.10014 19.5022 6.27713C19.4282 6.45412 19.3977 6.64631 19.4135 6.83753C19.6003 6.85392 19.7884 6.83054 19.9656 6.76892C20.1427 6.7073 20.3047 6.60885 20.441 6.48004C20.5773 6.35124 20.6848 6.19501 20.7563 6.02165C20.8279 5.84829 20.8618 5.66174 20.856 5.47429C20.6713 5.44937 20.4833 5.46766 20.3068 5.52774C20.1303 5.58782 19.9702 5.68804 19.839 5.82051ZM19.2331 6.80146C19.281 6.62902 19.28 6.44669 19.2304 6.27476C19.1807 6.10284 19.0843 5.94808 18.9518 5.82772C18.8194 5.70528 18.6561 5.62114 18.4795 5.5843C18.3029 5.54745 18.1196 5.55929 17.9492 5.61855C17.8988 5.79021 17.8978 5.97261 17.9463 6.14483C17.9947 6.31705 18.0908 6.47213 18.2233 6.59229C18.3573 6.71467 18.5218 6.79869 18.6995 6.8355C18.8772 6.87231 19.0615 6.86055 19.2331 6.80146ZM19.2403 8.04929C19.0608 8.16254 18.9099 8.31596 18.7998 8.49746C18.6896 8.67896 18.6232 8.88357 18.6056 9.09515C18.8039 9.15752 19.0144 9.17108 19.2191 9.13466C19.4238 9.09824 19.6167 9.01293 19.7813 8.88598C19.9598 8.7715 20.1097 8.61777 20.2197 8.43651C20.3297 8.25526 20.3969 8.05127 20.416 7.84011C20.2179 7.77587 20.0071 7.76135 19.8021 7.79783C19.597 7.8343 19.4041 7.92066 19.2403 8.04929ZM18.4181 9.01581C18.4999 8.83685 18.5317 8.63908 18.5101 8.44349C18.4885 8.24791 18.4143 8.06183 18.2955 7.90503C18.1777 7.74919 18.0187 7.62943 17.8364 7.55932C17.6541 7.48921 17.4558 7.47154 17.264 7.50832C17.1781 7.68475 17.1415 7.8811 17.158 8.07662C17.1745 8.27214 17.2435 8.45957 17.3578 8.6191C17.4778 8.78001 17.6416 8.90297 17.8296 8.97332C18.0176 9.04366 18.2219 9.05841 18.4181 9.01581ZM18.62 10.3646C18.3994 10.4501 18.2007 10.5839 18.0385 10.7561C17.8762 10.9283 17.7546 11.1347 17.6824 11.36C17.8685 11.4797 18.0822 11.5499 18.3032 11.5638C18.5241 11.5776 18.7449 11.5348 18.9446 11.4393C19.1652 11.3538 19.3639 11.2201 19.5262 11.0478C19.6884 10.8756 19.8101 10.6693 19.8823 10.444C19.6969 10.3222 19.483 10.2509 19.2617 10.237C19.0403 10.2231 18.8192 10.2671 18.62 10.3646ZM16.5572 10.5233C16.6275 10.7237 16.7553 10.899 16.9246 11.0272C17.094 11.1555 17.2973 11.2311 17.5093 11.2446C17.6423 11.066 17.7284 10.8569 17.7599 10.6364C17.7914 10.4159 17.7672 10.1911 17.6896 9.98233C17.6179 9.78136 17.4888 9.60586 17.3182 9.47763C17.1477 9.3494 16.9432 9.27409 16.7303 9.26105C16.5966 9.43944 16.5106 9.64893 16.4803 9.86976C16.45 10.0906 16.4765 10.3155 16.5572 10.5233ZM17.3578 12.2832C17.128 12.3427 16.9143 12.4525 16.7322 12.6047C16.5501 12.7569 16.404 12.9477 16.3047 13.1632C16.4672 13.3097 16.6661 13.4098 16.8806 13.4529C17.0951 13.4961 17.3172 13.4807 17.5237 13.4084C17.7541 13.3507 17.9688 13.2425 18.1521 13.0915C18.3355 12.9406 18.483 12.7507 18.584 12.5357C18.4203 12.3887 18.2205 12.2878 18.0051 12.2435C17.7896 12.1991 17.5662 12.2128 17.3578 12.2832ZM15.6988 10.92C15.5427 11.0833 15.4294 11.2827 15.369 11.5004C15.3086 11.7182 15.303 11.9474 15.3526 12.1678C15.3931 12.3742 15.4933 12.5642 15.6407 12.7142C15.7882 12.8642 15.9764 12.9677 16.1821 13.0117C16.3332 12.8466 16.4439 12.6485 16.5052 12.4331C16.5665 12.2178 16.5769 11.9912 16.5355 11.7711C16.4958 11.5624 16.3951 11.3702 16.2462 11.2187C16.0973 11.0673 15.9068 10.9633 15.6988 10.92ZM15.5906 14.0576C15.3354 14.037 15.0788 14.0758 14.8411 14.1709C14.6033 14.266 14.3908 14.4148 14.2202 14.6058C14.3041 14.8269 14.4517 15.0182 14.6442 15.1556C14.8368 15.2929 15.0657 15.3702 15.3021 15.3776C15.5579 15.3973 15.8148 15.3574 16.0526 15.261C16.2904 15.1646 16.5026 15.0144 16.6726 14.8222C16.5867 14.6029 16.4384 14.4137 16.2461 14.2778C16.0539 14.1419 15.826 14.0654 15.5906 14.0576ZM13.672 13.1344C13.6224 13.3654 13.6402 13.6058 13.7233 13.8271C13.8065 14.0483 13.9514 14.241 14.1408 14.3822C14.3653 14.2524 14.5572 14.0732 14.7022 13.8583C14.8471 13.6434 14.9413 13.3983 14.9775 13.1416C15.0254 12.9105 15.0067 12.6707 14.9237 12.4498C14.8407 12.2289 14.6968 12.0361 14.5087 11.8937C14.2843 12.0236 14.0924 12.2027 13.9474 12.4176C13.8024 12.6326 13.7083 12.8777 13.672 13.1344ZM13.2825 15.2694C13.0025 15.2459 12.7209 15.2886 12.4603 15.3938C12.1997 15.499 11.9675 15.6639 11.7822 15.8752C11.8775 16.1135 12.04 16.3189 12.2501 16.4662C12.4602 16.6135 12.7087 16.6964 12.9652 16.7047C13.246 16.7259 13.528 16.6823 13.7894 16.5773C14.0508 16.4722 14.2845 16.3085 14.4726 16.0988C14.3769 15.8595 14.2132 15.6534 14.0017 15.506C13.7902 15.3585 13.5402 15.2763 13.2825 15.2694ZM12.6117 14.2668C12.6672 14.0133 12.6484 13.7492 12.5576 13.5061C12.4668 13.263 12.3078 13.0513 12.0996 12.8963C11.852 13.0364 11.6399 13.2315 11.4798 13.4667C11.3197 13.7018 11.2159 13.9706 11.1764 14.2523C11.1247 14.5069 11.1453 14.7708 11.2358 15.0143C11.3263 15.2577 11.4831 15.471 11.6885 15.63C11.9356 15.4876 12.1471 15.2908 12.307 15.0547C12.467 14.8185 12.5712 14.5491 12.6117 14.2668ZM2.93206 4.6953C2.95307 4.51433 2.93066 4.33096 2.86669 4.16037C2.80272 3.98978 2.69903 3.83689 2.5642 3.71436C2.40429 3.76194 2.26207 3.85585 2.15552 3.98424C2.04896 4.11262 1.98285 4.2697 1.96554 4.43564C1.94331 4.61669 1.96516 4.80042 2.0292 4.97121C2.09325 5.14201 2.19761 5.2948 2.33339 5.41659C2.49283 5.36817 2.63455 5.27401 2.74097 5.14579C2.84739 5.01757 2.91383 4.86093 2.93206 4.6953ZM2.31897 6.83753C2.3347 6.64631 2.30426 6.45412 2.2302 6.27713C2.15614 6.10014 2.04063 5.94353 1.89341 5.82051C1.75918 5.68378 1.59427 5.58104 1.41237 5.52083C1.23048 5.46062 1.03684 5.44466 0.847541 5.47429C0.831803 5.66551 0.862246 5.8577 0.936305 6.03469C1.01037 6.21168 1.12587 6.36829 1.2731 6.49131C1.40662 6.62903 1.57146 6.73244 1.75356 6.79272C1.93566 6.853 2.12964 6.86837 2.31897 6.83753ZM2.49929 6.80146C2.67087 6.86055 2.8552 6.87231 3.0329 6.8355C3.2106 6.79869 3.3751 6.71467 3.50909 6.59229C3.64165 6.47213 3.73767 6.31705 3.78615 6.14483C3.83463 5.97261 3.8336 5.79021 3.78318 5.61855C3.61279 5.55929 3.42951 5.54745 3.25292 5.5843C3.07632 5.62114 2.91306 5.70528 2.78059 5.82772C2.64815 5.94808 2.55173 6.10284 2.50206 6.27476C2.45239 6.44669 2.45143 6.62902 2.49929 6.80146ZM3.12681 9.09515C3.10925 8.88357 3.04277 8.67896 2.93262 8.49746C2.82247 8.31596 2.67166 8.16254 2.49207 8.04929C2.32765 7.92188 2.13444 7.83682 1.92943 7.80161C1.72442 7.76639 1.51389 7.78209 1.31638 7.84733C1.3366 8.05722 1.40425 8.25978 1.5142 8.4397C1.62416 8.61963 1.77355 8.77223 1.95111 8.88598C2.11576 9.01293 2.30863 9.09824 2.51332 9.13466C2.71801 9.17108 2.92847 9.15752 3.12681 9.09515ZM3.31434 9.01581C3.51051 9.05841 3.71479 9.04366 3.9028 8.97332C4.09081 8.90297 4.25461 8.78001 4.37463 8.6191C4.4935 8.4623 4.56767 8.27622 4.58926 8.08064C4.61085 7.88506 4.57906 7.68728 4.49725 7.50832C4.30543 7.47154 4.10715 7.48921 3.92486 7.55932C3.74256 7.62943 3.58354 7.74919 3.46581 7.90503C3.34224 8.05905 3.26287 8.24378 3.23619 8.43944C3.20951 8.63509 3.23652 8.83432 3.31434 9.01581ZM4.05005 11.36C3.97785 11.1347 3.85618 10.9283 3.69394 10.7561C3.5317 10.5839 3.333 10.4501 3.11238 10.3646C2.91321 10.2671 2.69207 10.2231 2.47074 10.237C2.24941 10.2509 2.03551 10.3222 1.85013 10.444C1.92233 10.6693 2.044 10.8756 2.20624 11.0478C2.36848 11.2201 2.56718 11.3538 2.7878 11.4393C2.98751 11.5348 3.20832 11.5776 3.42924 11.5638C3.65017 11.5499 3.86387 11.4797 4.05005 11.36ZM4.04284 9.96791C3.96517 10.1766 3.94098 10.4015 3.97248 10.622C4.00398 10.8424 4.09015 11.0515 4.22316 11.2302C4.43514 11.2167 4.63846 11.1411 4.80777 11.0128C4.97708 10.8845 5.10489 10.7093 5.17526 10.5089C5.25594 10.3011 5.28239 10.0762 5.2521 9.85534C5.22182 9.6345 5.1358 9.42502 5.00215 9.24662C4.78918 9.25966 4.58472 9.33497 4.41418 9.4632C4.24363 9.59143 4.11451 9.76693 4.04284 9.96791ZM4.37463 12.2832C4.16622 12.2128 3.94283 12.1991 3.72736 12.2435C3.51189 12.2878 3.31209 12.3887 3.14844 12.5357C3.24938 12.7507 3.39689 12.9406 3.58028 13.0915C3.76366 13.2425 3.97834 13.3507 4.20874 13.4084C4.41523 13.4807 4.63736 13.4961 4.85184 13.4529C5.06632 13.4098 5.26523 13.3097 5.42771 13.1632C5.32837 12.9477 5.18235 12.7569 5.00022 12.6047C4.81809 12.4525 4.60441 12.3427 4.37463 12.2832ZM5.55033 13.0117C5.756 12.9677 5.94422 12.8642 6.09167 12.7142C6.23912 12.5642 6.3393 12.3742 6.37981 12.1678C6.42943 11.9474 6.42379 11.7182 6.36338 11.5004C6.30298 11.2827 6.18969 11.0833 6.03359 10.92C5.82562 10.9633 5.63515 11.0673 5.48624 11.2187C5.33732 11.3702 5.23663 11.5624 5.1969 11.7711C5.15549 11.9912 5.16587 12.2178 5.22722 12.4331C5.28856 12.6485 5.39918 12.8466 5.55033 13.0117ZM7.51223 14.6058C7.3416 14.4148 7.12908 14.266 6.89133 14.1709C6.65357 14.0758 6.39703 14.037 6.14178 14.0576C5.91133 14.0617 5.68691 14.1319 5.49513 14.2597C5.30336 14.3876 5.15229 14.5677 5.05985 14.7789C5.22978 14.9711 5.44198 15.1214 5.67977 15.2177C5.91757 15.3141 6.17447 15.354 6.4303 15.3343C6.66176 15.3304 6.88714 15.2596 7.07917 15.1303C7.27119 15.001 7.42161 14.8188 7.51223 14.6058ZM7.59157 14.3822C7.78104 14.241 7.92596 14.0483 8.00908 13.8271C8.09219 13.6058 8.11001 13.3654 8.0604 13.1344C8.02816 12.8809 7.9395 12.6378 7.80094 12.4232C7.66239 12.2085 7.47746 12.0275 7.25978 11.8937C7.07165 12.0361 6.92776 12.2289 6.84478 12.4498C6.76179 12.6707 6.74313 12.9105 6.79094 13.1416C6.82319 13.395 6.91185 13.6381 7.0504 13.8528C7.18896 14.0675 7.37388 14.2484 7.59157 14.3822ZM7.25978 16.0988C7.44718 16.3098 7.68062 16.4749 7.94202 16.5812C8.20343 16.6875 8.4858 16.7322 8.76726 16.7119C9.02372 16.7036 9.27219 16.6207 9.48228 16.4734C9.69237 16.3261 9.85496 16.1207 9.95017 15.8825C9.76494 15.6711 9.5327 15.5062 9.27213 15.401C9.01156 15.2958 8.72993 15.2532 8.4499 15.2766C8.19302 15.2829 7.94357 15.3641 7.73217 15.5102C7.52076 15.6562 7.35658 15.8608 7.25978 16.0988ZM9.63281 12.8963C9.42466 13.0513 9.26564 13.263 9.1748 13.5061C9.08397 13.7492 9.06518 14.0133 9.12069 14.2668C9.16126 14.5491 9.26545 14.8185 9.42539 15.0547C9.58532 15.2908 9.79683 15.4876 10.0439 15.63C10.2493 15.471 10.4061 15.2577 10.4966 15.0143C10.5871 14.7708 10.6077 14.5069 10.5561 14.2523C10.5165 13.9706 10.4127 13.7018 10.2526 13.4667C10.0925 13.2315 9.88043 13.0364 9.63281 12.8963Z" fill="#C6B480"/>
<path d="M12.3458 3.57366L10.8657 0.570312L9.38562 3.57366L6.07977 4.04901L8.47813 6.38255L7.90555 9.67759L10.8657 8.1219L13.8258 9.67759L13.2532 6.38255L15.6516 4.04901L12.3458 3.57366Z" fill="#C6B480"/>
</svg>
