<svg width="98" height="14" viewBox="0 0 98 14" fill="none" xmlns="http://www.w3.org/2000/svg">
<path d="M53.8186 8.01433C53.8344 8.37932 53.7841 8.74414 53.6707 9.08751C53.5573 9.43087 53.383 9.74593 53.158 10.0143C52.933 10.2827 52.6618 10.499 52.3601 10.6507C52.0585 10.8023 51.7325 10.8863 51.4011 10.8977C51.0697 10.9091 50.7395 10.8476 50.4299 10.717C50.1203 10.5863 49.8374 10.389 49.5976 10.1366C49.3579 9.88421 49.1661 9.58173 49.0335 9.24682C48.9009 8.9119 48.8302 8.55125 48.8253 8.18588V0.696289H46.6797V8.01433C46.6717 8.6932 46.7862 9.36705 47.0164 9.99679C47.2466 10.6265 47.588 11.1996 48.0208 11.6828C48.4535 12.1659 48.969 12.5496 49.5374 12.8114C50.1058 13.0732 50.7157 13.2081 51.3317 13.2081C51.9477 13.2081 52.5576 13.0732 53.1259 12.8114C53.6943 12.5496 54.2098 12.1659 54.6426 11.6828C55.0753 11.1996 55.4167 10.6265 55.6469 9.99679C55.8772 9.36705 55.9916 8.6932 55.9836 8.01433V0.696289H53.8287L53.8186 8.01433Z" fill="#D1C297"/>
<path d="M5.64244 3.07571C6.53092 3.07479 7.38605 3.44858 8.03244 4.12041L9.26985 2.15538C8.44695 1.3945 7.4441 0.908284 6.37914 0.753841C5.31417 0.599398 4.23134 0.783149 3.25785 1.2835C2.28437 1.78386 1.46068 2.58003 0.883563 3.57848C0.306446 4.57693 -0.00012207 5.73617 -0.00012207 6.91999C-0.00012207 8.10382 0.306446 9.26306 0.883563 10.2615C1.46068 11.26 2.28437 12.0561 3.25785 12.5565C4.23134 13.0568 5.31417 13.2406 6.37914 13.0861C7.4441 12.9317 8.44695 12.4455 9.26985 11.6846L8.03244 9.71873C7.61801 10.1483 7.1145 10.4597 6.56582 10.6256C6.01715 10.7915 5.43997 10.8069 4.88464 10.6706C4.32931 10.5342 3.81269 10.2501 3.37984 9.84316C2.94699 9.4362 2.61106 8.91871 2.40135 8.33581C2.19163 7.75291 2.11451 7.12231 2.1767 6.49902C2.23889 5.87573 2.43851 5.27867 2.75814 4.75992C3.07778 4.24118 3.50771 3.8165 4.01046 3.52294C4.51321 3.22937 5.07349 3.07583 5.64244 3.07571Z" fill="#D1C297"/>
<path d="M29.9539 9.06085L24.7046 0.700684H22.5489V13.1393H24.7046V4.77913L29.9539 13.1393H32.1096V0.700684H29.9539V9.06085Z" fill="#D1C297"/>
<path d="M34.9813 0.700684V3.07656H38.3122V13.1393H40.4679V3.07656H43.7988V0.700684H34.9813Z" fill="#D1C297"/>
<path d="M94.4308 0.700684V3.07656H95.6044V13.1393H97.7602V0.700684H94.4308Z" fill="#D1C297"/>
<path d="M12.1459 0.700684V13.1393H19.6685V10.7634H14.3017V8.10793H18.6124V5.73205H14.3017V3.07656H19.6685V0.700684H12.1459Z" fill="#D1C297"/>
<path d="M67.509 4.87423C67.508 3.76711 67.1087 2.70561 66.3987 1.92244C65.6886 1.13927 64.7258 0.698332 63.7213 0.696289L58.8479 0.696289V13.1375H61.0036V9.04616H62.3796L64.9478 13.1323H67.5113L64.8209 8.86261C65.5968 8.60149 66.2764 8.07337 66.7601 7.35564C67.2439 6.6379 67.5063 5.76829 67.509 4.87423ZM63.7213 6.67543H61.0036V3.07302H63.7213C64.1547 3.07302 64.5704 3.26279 64.8769 3.60058C65.1834 3.93837 65.3556 4.39652 65.3556 4.87423C65.3556 5.35194 65.1834 5.81008 64.8769 6.14787C64.5704 6.48566 64.1547 6.67543 63.7213 6.67543Z" fill="#D1C297"/>
<path d="M77.3817 0.700684L74.222 5.73205L71.0593 0.700684H68.498L73.1442 8.09421V13.1393H75.2999V8.09421L79.9429 0.700684H77.3817Z" fill="#D1C297"/>
<path d="M91.3757 6.91709L91.4317 6.83132C91.7435 6.32156 91.9424 5.73835 92.0127 5.1285C92.0829 4.51866 92.0224 3.89915 91.8361 3.31972C91.6498 2.74029 91.3428 2.21706 90.9398 1.79204C90.5369 1.36702 90.0491 1.05203 89.5156 0.872376C88.9822 0.692717 88.418 0.653385 87.8683 0.757536C87.3185 0.861688 86.7986 1.10642 86.3503 1.47209C85.9019 1.83777 85.5376 2.3142 85.2865 2.86314C85.0354 3.41208 84.9046 4.01825 84.9046 4.63299V4.7788H87.065C87.0626 4.73023 87.0626 4.68156 87.065 4.63299C87.0648 4.22227 87.2119 3.82811 87.4743 3.53648C87.7367 3.24485 88.0932 3.07941 88.4658 3.07624C88.645 3.06761 88.8241 3.09813 88.9925 3.16602C89.161 3.23391 89.3157 3.33784 89.4476 3.47183C89.5795 3.60582 89.6861 3.76724 89.7612 3.94679C89.8364 4.12634 89.8785 4.32048 89.8853 4.51806V4.52235C89.8877 4.55918 89.8877 4.59616 89.8853 4.63299C89.8137 5.0672 89.6588 5.47954 89.4308 5.84237C89.311 6.03622 84.8462 13.139 84.8462 13.139H92.2512V10.7631H88.9616L91.3757 6.91709Z" fill="#D1C297"/>
</svg>
