<svg width="12" height="11" viewBox="0 0 12 11" fill="none" xmlns="http://www.w3.org/2000/svg">
<path d="M11.122 9.15393L9.55064 10.6553C9.3187 10.8844 9.01125 10.962 8.71183 10.9624C7.38771 10.9242 6.13611 10.2977 5.10846 9.65438C3.42165 8.47239 1.87393 7.00677 0.902551 5.23563C0.529992 4.49293 0.0928487 3.5453 0.134615 2.71631C0.138339 2.40446 0.225586 2.09841 0.453603 1.8974L2.02492 0.384669C2.3512 0.117345 2.66675 0.209772 2.87555 0.521153L4.13968 2.83006C4.27273 3.10359 4.19641 3.39667 3.99789 3.59212L3.41899 4.14944C3.38325 4.19659 3.36049 4.25027 3.35992 4.30868C3.58191 5.13636 4.25442 5.89922 4.84853 6.42421C5.44262 6.94922 6.08121 7.66049 6.91013 7.82888C7.01259 7.8564 7.1381 7.86607 7.2114 7.80044L7.88484 7.14076C8.11699 6.97128 8.45217 6.88844 8.70001 7.02702H8.71182L10.992 8.32364C11.3267 8.52574 11.3616 8.91631 11.122 9.15393V9.15393Z" fill="white"/>
</svg>
