<svg width="26" height="26" viewBox="0 0 26 26" fill="none" xmlns="http://www.w3.org/2000/svg">
<path fill-rule="evenodd" clip-rule="evenodd" d="M13.2456 0.78125C20.1005 0.78125 25.657 6.26548 25.657 13.0312C25.657 19.797 20.1005 25.2812 13.2456 25.2812C6.39062 25.2812 0.834106 19.797 0.834106 13.0312C0.834106 6.26548 6.39062 0.78125 13.2456 0.78125ZM13.9888 5.77078C14.8328 5.87491 15.5149 6.07561 16.263 6.43604C16.9991 6.79129 17.4703 7.1277 18.0932 7.73925C18.677 8.31689 19.0011 8.75458 19.3444 9.43399C19.8227 10.3815 20.0953 11.5085 20.1416 12.7486C20.1587 13.1717 20.1463 13.2659 20.0485 13.387C19.8623 13.6211 19.4522 13.5825 19.3124 13.3191C19.2685 13.232 19.2561 13.1571 19.2413 12.8188C19.2169 12.2991 19.1802 11.9627 19.1067 11.5613C18.8169 9.9876 18.0517 8.73056 16.8296 7.82877C15.8119 7.07446 14.7593 6.70696 13.3807 6.62734C12.9143 6.60048 12.8336 6.58351 12.7281 6.50388C12.5314 6.35123 12.5219 5.99362 12.7109 5.82683C12.826 5.72318 12.9066 5.70809 13.3067 5.72034C13.5153 5.72741 13.8222 5.75192 13.9893 5.77124L13.9888 5.77078ZM8.38076 6.03227C8.46669 6.06148 8.59892 6.12885 8.6753 6.17738C9.14121 6.48174 10.4392 8.11852 10.8635 8.93597C11.1065 9.40242 11.1872 9.74824 11.1113 10.0046C11.0325 10.2802 10.9027 10.4253 10.3212 10.887C10.0883 11.0731 9.86965 11.2639 9.83576 11.3148C9.74744 11.4406 9.67583 11.6871 9.67583 11.8614C9.67869 12.2652 9.94317 12.9978 10.2916 13.5608C10.5618 13.9985 11.0449 14.5597 11.5233 14.9898C12.0851 15.4973 12.5806 15.8431 13.1401 16.1164C13.859 16.4697 14.2982 16.5593 14.6194 16.4113C14.7006 16.375 14.7865 16.3265 14.8132 16.3048C14.8376 16.2832 15.0266 16.0561 15.2328 15.8045C15.63 15.3112 15.7207 15.2315 15.9933 15.1397C16.3394 15.0237 16.6926 15.0548 17.0483 15.2339C17.318 15.3719 17.9065 15.7319 18.287 15.9929C18.7873 16.3388 19.8575 17.1995 20.0017 17.371C20.2571 17.6806 20.301 18.0773 20.1296 18.5145C19.9482 18.9763 19.2417 19.8423 18.7481 20.2121C18.3018 20.5457 17.9853 20.6738 17.5681 20.6927C17.2244 20.7101 17.0826 20.6809 16.6434 20.5019C13.1988 19.1025 10.4487 17.0135 8.26571 14.1437C7.1248 12.6444 6.256 11.0901 5.66264 9.47732C5.31655 8.5369 5.29985 8.12842 5.58388 7.64737C5.70657 7.44431 6.22927 6.94112 6.60973 6.66078C7.24224 6.19669 7.53438 6.02471 7.76733 5.97665C7.92677 5.94273 8.20414 5.9696 8.38076 6.03227ZM14.1583 7.52392C15.6477 7.73924 16.8005 8.42101 17.5562 9.52822C17.9806 10.152 18.2455 10.8847 18.3362 11.6701C18.3682 11.958 18.3682 12.4828 18.3338 12.57C18.3018 12.652 18.1987 12.7632 18.1104 12.8089C18.0149 12.8574 17.8111 12.8527 17.6984 12.7947C17.5094 12.7005 17.4531 12.5502 17.4531 12.1445C17.4531 11.5179 17.2884 10.8583 17.0043 10.3452C16.6843 9.76402 16.2113 9.2788 15.6352 8.94069C15.1421 8.65046 14.4132 8.43561 13.7487 8.38237C13.5081 8.36306 13.3754 8.31453 13.2847 8.21041C13.2169 8.13682 13.1763 8.04271 13.1697 7.94345C13.163 7.8442 13.1906 7.74564 13.248 7.66385C13.3754 7.46832 13.5721 7.43676 14.1583 7.52392ZM14.6805 9.34918C15.1641 9.45095 15.5345 9.63187 15.851 9.92492C16.2582 10.3042 16.4811 10.7636 16.5795 11.4237C16.6458 11.8538 16.6186 12.0235 16.4644 12.1634C16.3193 12.2939 16.052 12.2991 15.8902 12.1756C15.7722 12.0885 15.7355 11.9966 15.7088 11.7478C15.6768 11.4166 15.6181 11.1843 15.5173 10.969C15.3016 10.512 14.9211 10.2755 14.2786 10.1977C13.9764 10.1615 13.8857 10.128 13.7878 10.014C13.6088 9.80385 13.6771 9.46272 13.9253 9.33739C14.0184 9.29122 14.0576 9.28653 14.2638 9.29831C14.4037 9.30648 14.5428 9.32346 14.6805 9.34918Z" fill="white"/>
</svg>
