<svg width="26" height="26" viewBox="0 0 26 26" fill="none" xmlns="http://www.w3.org/2000/svg">
<path d="M12.8773 0.28125C10.3877 0.28125 7.95399 1.00989 5.88397 2.37504C3.81396 3.74019 2.20058 5.68053 1.24785 7.95069C0.295127 10.2208 0.0458508 12.7189 0.531545 15.1288C1.01724 17.5388 2.21609 19.7525 3.9765 21.4901C5.7369 23.2276 7.97979 24.4108 10.4215 24.8902C12.8633 25.3696 15.3942 25.1235 17.6943 24.1832C19.9944 23.2429 21.9603 21.6505 23.3434 19.6074C24.7266 17.5643 25.4648 15.1623 25.4648 12.7051C25.465 11.0735 25.1395 9.45791 24.5069 7.95052C23.8744 6.44314 22.9472 5.07349 21.7783 3.9198C20.6094 2.76612 19.2217 1.85099 17.6945 1.22668C16.1672 0.602374 14.5303 0.281115 12.8773 0.28125ZM16.8795 19.1064C16.8324 19.2224 16.7607 19.327 16.6692 19.4134C16.5778 19.4998 16.4687 19.5659 16.3492 19.6072C16.2298 19.6486 16.1028 19.6642 15.9767 19.6532C15.8506 19.6421 15.7284 19.6046 15.6182 19.5431L12.2011 16.9225L10.0079 18.9195C9.95706 18.9566 9.89753 18.9805 9.83484 18.9889C9.77215 18.9974 9.70831 18.9901 9.6492 18.9679L10.0696 15.255L10.0831 15.2656L10.0917 15.1923C10.0917 15.1923 16.2407 9.66677 16.4912 9.43135C16.7448 9.19654 16.6611 9.1456 16.6611 9.1456C16.6756 8.8592 16.2061 9.1456 16.2061 9.1456L8.05873 14.3189L4.66576 13.1784C4.66576 13.1784 4.14464 12.9939 4.09555 12.5883C4.04394 12.1858 4.68274 11.9671 4.68274 11.9671L18.1729 6.67765C18.1729 6.67765 19.2818 6.18999 19.2818 6.99757L16.8795 19.1064Z" fill="white"/>
</svg>
