<svg width="26" height="25" viewBox="0 0 26 25" fill="none" xmlns="http://www.w3.org/2000/svg">
<g clip-path="url(#clip0_1_256)">
<path d="M12.9764 0.78125H12.9703C6.26662 0.78125 0.815201 6.16325 0.815201 12.7812C0.811039 15.3088 1.62167 17.772 3.12981 19.8148L1.6146 24.2728L6.2879 22.7983C8.27024 24.0963 10.5975 24.7863 12.9764 24.7812C19.6801 24.7812 25.1315 19.3977 25.1315 12.7812C25.1315 6.16475 19.6801 0.78125 12.9764 0.78125Z" fill="white"/>
<path d="M20.051 17.727C19.7576 18.5445 18.5935 19.2225 17.6649 19.4205C17.0296 19.554 16.1999 19.6605 13.4065 18.5175C9.83353 17.0565 7.5326 13.473 7.35327 13.2405C7.18153 13.008 5.90948 11.343 5.90948 9.62102C5.90948 7.89902 6.79551 7.06052 7.15266 6.70052C7.44597 6.40502 7.93078 6.27002 8.39583 6.27002C8.54629 6.27002 8.68155 6.27752 8.80313 6.28352C9.16027 6.29852 9.33961 6.31952 9.57517 6.87602C9.86849 7.57352 10.5828 9.29552 10.6679 9.47252C10.7545 9.64952 10.8411 9.88952 10.7196 10.122C10.6056 10.362 10.5053 10.4685 10.3259 10.6725C10.1466 10.8765 9.97639 11.0325 9.79706 11.2515C9.63292 11.442 9.44751 11.646 9.6542 11.9985C9.86089 12.3435 10.5752 13.494 11.6269 14.418C12.984 15.6105 14.0843 15.9915 14.478 16.1535C14.7713 16.2735 15.1208 16.245 15.3351 16.02C15.6071 15.7305 15.943 15.2505 16.285 14.778C16.5281 14.439 16.8351 14.397 17.1573 14.517C17.4856 14.6295 19.2227 15.477 19.5798 15.6525C19.937 15.8295 20.1725 15.9135 20.2592 16.062C20.3443 16.2105 20.3443 16.908 20.051 17.727Z" fill="#0A1013"/>
</g>
<defs>
<clipPath id="clip0_1_256">
<rect width="24.3163" height="24" fill="white" transform="translate(0.815186 0.78125)"/>
</clipPath>
</defs>
</svg>
